<?xml version="1.0" encoding="iso-8859-1"?>
<!-- Generator: Adobe Illustrator 16.0.0, SVG Export Plug-In . SVG Version: 6.00 Build 0)  -->
<!DOCTYPE svg PUBLIC "-//W3C//DTD SVG 1.1//EN" "http://www.w3.org/Graphics/SVG/1.1/DTD/svg11.dtd">
<svg version="1.1" id="Capa_1" xmlns="http://www.w3.org/2000/svg" xmlns:xlink="http://www.w3.org/1999/xlink" x="0px" y="0px"
	 width="63.665px" height="63.664px" viewBox="0 0 63.665 63.664" style="enable-background:new 0 0 63.665 63.664;"
	 xml:space="preserve">
<g>
	<g>
		<path d="M59.498,11.52H4.167C1.869,11.52,0,13.413,0,15.741v32.182c0,2.327,1.869,4.222,4.167,4.222h55.331
			c2.298,0,4.167-1.895,4.167-4.222V15.741C63.665,13.413,61.795,11.52,59.498,11.52z M61.582,47.923
			c0,1.179-0.936,2.139-2.084,2.139H4.167c-1.149,0-2.083-0.96-2.083-2.139V15.741c0-1.179,0.935-2.138,2.083-2.138h55.331
			c1.148,0,2.084,0.959,2.084,2.138V47.923z"/>
		<path d="M7.305,38.489c0.182-0.318,0.274-0.773,0.274-1.361s-0.092-1.043-0.274-1.363c-0.184-0.319-0.501-0.478-0.955-0.478
			s-0.773,0.158-0.955,0.478c-0.183,0.32-0.274,0.775-0.274,1.363s0.092,1.042,0.274,1.361c0.183,0.317,0.501,0.476,0.955,0.476
			S7.123,38.807,7.305,38.489z M5.937,38.067c-0.068-0.218-0.101-0.53-0.101-0.939c0-0.43,0.033-0.748,0.101-0.954
			c0.068-0.207,0.205-0.31,0.414-0.31c0.208,0,0.345,0.103,0.409,0.31c0.065,0.206,0.097,0.524,0.097,0.954
			c0,0.409-0.032,0.725-0.097,0.939c-0.064,0.218-0.201,0.327-0.409,0.327C6.142,38.395,6.004,38.285,5.937,38.067z"/>
		<path d="M9.67,38.878V35.31H9.084c0,0.032-0.01,0.08-0.027,0.144C9.026,35.56,8.98,35.645,8.919,35.71
			c-0.088,0.094-0.203,0.155-0.344,0.185c-0.087,0.021-0.242,0.035-0.462,0.045v0.479h0.839v2.46H9.67z"/>
		<path d="M11.596,37.421c-0.373,0.266-0.609,0.517-0.708,0.755c-0.104,0.211-0.158,0.445-0.165,0.702h2.443v-0.619h-1.557
			c0.043-0.073,0.099-0.138,0.164-0.195c0.064-0.055,0.185-0.146,0.36-0.271l0.281-0.198c0.236-0.168,0.406-0.318,0.51-0.456
			c0.157-0.204,0.237-0.439,0.237-0.702c0-0.346-0.112-0.621-0.335-0.83c-0.223-0.21-0.524-0.313-0.9-0.313
			c-0.479,0-0.811,0.178-0.997,0.533c-0.099,0.187-0.153,0.432-0.165,0.735h0.682c0.008-0.2,0.034-0.346,0.079-0.438
			c0.077-0.16,0.222-0.239,0.435-0.239c0.156,0,0.275,0.051,0.36,0.15s0.125,0.225,0.125,0.377c0,0.185-0.073,0.355-0.219,0.51
			C12.128,37.024,11.918,37.188,11.596,37.421z"/>
		<path d="M14.721,38.395c-0.225,0-0.379-0.087-0.464-0.259c-0.046-0.094-0.069-0.21-0.069-0.354H13.5
			c0.012,0.283,0.068,0.514,0.172,0.688c0.197,0.329,0.546,0.494,1.052,0.494c0.409,0,0.719-0.113,0.928-0.342
			c0.208-0.229,0.314-0.494,0.314-0.796c0-0.286-0.09-0.515-0.268-0.679c-0.12-0.11-0.212-0.165-0.275-0.165
			c0.085-0.032,0.168-0.094,0.246-0.186c0.125-0.143,0.187-0.321,0.187-0.53c0-0.297-0.104-0.533-0.314-0.709
			c-0.209-0.177-0.483-0.265-0.824-0.265c-0.183,0-0.338,0.021-0.464,0.065c-0.126,0.045-0.234,0.109-0.327,0.191
			c-0.124,0.118-0.213,0.248-0.271,0.387c-0.054,0.16-0.084,0.328-0.09,0.505h0.654c-0.003-0.175,0.034-0.315,0.112-0.421
			c0.078-0.105,0.199-0.157,0.364-0.157c0.144,0,0.255,0.043,0.335,0.128c0.079,0.086,0.119,0.195,0.119,0.332
			c0,0.21-0.078,0.35-0.234,0.418c-0.089,0.041-0.248,0.064-0.474,0.066v0.502c0.232,0,0.401,0.022,0.51,0.067
			c0.19,0.079,0.285,0.235,0.285,0.47c0,0.178-0.051,0.312-0.153,0.407C14.978,38.348,14.858,38.395,14.721,38.395z"/>
		<path d="M21.198,38.878v-0.77h0.403v-0.547h-0.403v-2.23h-0.787L19.1,37.496v0.612h1.412v0.77H21.198z M19.621,37.562l0.89-1.536
			v1.536H19.621z"/>
		<path d="M24.366,37.698c0-0.379-0.109-0.667-0.329-0.865c-0.22-0.197-0.476-0.297-0.771-0.297c-0.146,0-0.27,0.018-0.371,0.055
			c-0.061,0.023-0.145,0.07-0.253,0.142l0.128-0.779h1.457v-0.596h-1.963l-0.25,1.97l0.627,0.03c0.057-0.106,0.139-0.18,0.249-0.22
			c0.062-0.021,0.135-0.032,0.221-0.032c0.18,0,0.312,0.063,0.397,0.189c0.084,0.125,0.127,0.278,0.127,0.462
			c0,0.185-0.046,0.337-0.136,0.461c-0.091,0.122-0.223,0.184-0.397,0.184c-0.15,0-0.264-0.043-0.344-0.124
			c-0.078-0.083-0.131-0.2-0.159-0.354H21.9c0.025,0.334,0.146,0.593,0.363,0.774c0.218,0.184,0.497,0.272,0.836,0.272
			c0.42,0,0.737-0.128,0.949-0.389C24.259,38.322,24.366,38.028,24.366,37.698z"/>
		<path d="M25.969,38.969c0.417,0,0.726-0.126,0.925-0.38c0.198-0.255,0.298-0.549,0.298-0.881c0-0.334-0.101-0.608-0.304-0.824
			c-0.203-0.214-0.461-0.321-0.778-0.321c-0.148,0-0.279,0.024-0.394,0.071c-0.114,0.048-0.215,0.122-0.302,0.226
			c0.02-0.274,0.055-0.484,0.108-0.625c0.097-0.256,0.26-0.384,0.487-0.384c0.152,0,0.267,0.057,0.341,0.169
			c0.044,0.067,0.067,0.132,0.067,0.188h0.699c-0.025-0.282-0.136-0.509-0.333-0.677c-0.197-0.169-0.46-0.255-0.792-0.255
			c-0.229,0-0.427,0.053-0.592,0.158c-0.165,0.104-0.298,0.243-0.4,0.416c-0.118,0.201-0.198,0.453-0.239,0.757
			c-0.023,0.171-0.034,0.392-0.034,0.663c0,0.464,0.082,0.843,0.248,1.137C25.188,38.782,25.52,38.969,25.969,38.969z
			 M25.636,37.231c0.092-0.072,0.198-0.108,0.318-0.108c0.148,0,0.272,0.055,0.374,0.166c0.103,0.109,0.152,0.27,0.152,0.478
			c0,0.187-0.045,0.338-0.134,0.456s-0.211,0.177-0.368,0.177c-0.159,0-0.291-0.062-0.394-0.183
			c-0.104-0.123-0.155-0.279-0.155-0.471C25.43,37.511,25.499,37.338,25.636,37.231z"/>
		<path d="M27.499,35.986h1.777c-0.174,0.169-0.39,0.468-0.648,0.896c-0.399,0.689-0.608,1.354-0.63,1.993h0.729
			c0-0.205,0.041-0.468,0.121-0.787s0.171-0.59,0.271-0.812c0.126-0.282,0.283-0.556,0.471-0.82
			c0.187-0.264,0.333-0.448,0.438-0.551v-0.55h-2.519L27.499,35.986z"/>
		<path d="M35.249,38.653c0.223-0.209,0.334-0.466,0.334-0.765c0-0.2-0.045-0.382-0.134-0.544c-0.088-0.163-0.222-0.293-0.398-0.391
			c0.173-0.098,0.285-0.215,0.336-0.348c0.053-0.134,0.077-0.259,0.077-0.376c0-0.258-0.098-0.48-0.293-0.662
			c-0.196-0.183-0.472-0.273-0.828-0.273c-0.357,0-0.633,0.092-0.829,0.273s-0.294,0.404-0.294,0.662
			c0,0.117,0.026,0.242,0.079,0.376c0.051,0.133,0.164,0.258,0.337,0.373c-0.174,0.081-0.308,0.203-0.396,0.366
			c-0.091,0.162-0.136,0.344-0.136,0.543c0,0.301,0.102,0.556,0.308,0.766c0.205,0.211,0.507,0.316,0.905,0.316
			C34.715,38.971,35.027,38.864,35.249,38.653z M34.012,35.979c0.08-0.079,0.19-0.12,0.332-0.12c0.143,0,0.252,0.038,0.331,0.12
			c0.078,0.079,0.116,0.189,0.116,0.33c0,0.13-0.038,0.235-0.116,0.318c-0.079,0.082-0.188,0.122-0.331,0.122
			s-0.252-0.04-0.332-0.122c-0.08-0.083-0.119-0.188-0.119-0.318C33.893,36.168,33.933,36.058,34.012,35.979z M33.832,37.842
			c0-0.183,0.045-0.32,0.139-0.415c0.093-0.095,0.218-0.143,0.374-0.143c0.158,0,0.283,0.048,0.375,0.143
			c0.093,0.095,0.139,0.232,0.139,0.415c0,0.175-0.046,0.312-0.136,0.408c-0.091,0.097-0.217,0.145-0.378,0.145
			c-0.16,0-0.286-0.048-0.376-0.145C33.876,38.153,33.832,38.017,33.832,37.842z"/>
		<path d="M37.112,38.403c-0.118,0-0.215-0.032-0.287-0.098c-0.071-0.065-0.116-0.15-0.133-0.256h-0.699
			c0.031,0.303,0.153,0.535,0.367,0.692c0.212,0.159,0.452,0.237,0.721,0.237c0.56,0,0.945-0.274,1.156-0.824
			c0.109-0.288,0.164-0.648,0.164-1.079c0-0.444-0.057-0.803-0.172-1.075c-0.202-0.48-0.574-0.721-1.117-0.721
			c-0.352,0-0.638,0.118-0.859,0.354c-0.22,0.236-0.331,0.547-0.331,0.929c0,0.369,0.109,0.65,0.329,0.847
			c0.22,0.195,0.473,0.293,0.755,0.293c0.192,0,0.354-0.038,0.485-0.117c0.072-0.043,0.141-0.104,0.204-0.184
			c-0.014,0.271-0.044,0.477-0.096,0.616C37.506,38.277,37.343,38.403,37.112,38.403z M37.433,37.052
			c-0.086,0.056-0.178,0.083-0.274,0.083c-0.179,0-0.311-0.053-0.396-0.157c-0.086-0.107-0.129-0.265-0.129-0.477
			c0-0.251,0.067-0.429,0.202-0.534c0.085-0.066,0.188-0.101,0.308-0.101c0.163,0,0.292,0.06,0.388,0.177
			c0.094,0.118,0.141,0.279,0.141,0.479C37.67,36.773,37.591,36.95,37.433,37.052z"/>
		<path d="M40.478,38.878V35.31h-0.585c0,0.032-0.009,0.08-0.027,0.144c-0.03,0.106-0.076,0.191-0.136,0.257
			c-0.09,0.094-0.204,0.155-0.344,0.185c-0.09,0.021-0.243,0.035-0.464,0.045v0.479h0.838v2.46H40.478z"/>
		<path d="M42.581,38.065c0.064-0.057,0.187-0.146,0.361-0.271l0.281-0.199c0.235-0.168,0.406-0.319,0.511-0.456
			c0.156-0.205,0.235-0.439,0.235-0.702c0-0.346-0.111-0.621-0.333-0.83c-0.224-0.21-0.525-0.313-0.901-0.313
			c-0.479,0-0.811,0.178-0.997,0.533c-0.1,0.186-0.153,0.432-0.165,0.735h0.682c0.008-0.199,0.035-0.346,0.079-0.438
			c0.076-0.16,0.222-0.238,0.436-0.238c0.156,0,0.274,0.049,0.359,0.149c0.082,0.1,0.125,0.225,0.125,0.376
			c0,0.186-0.073,0.356-0.22,0.513c-0.094,0.1-0.303,0.264-0.627,0.496c-0.372,0.266-0.608,0.517-0.708,0.755
			c-0.104,0.211-0.158,0.445-0.164,0.702h2.443v-0.619h-1.559C42.462,38.186,42.517,38.121,42.581,38.065z"/>
		<path d="M49.028,36.983c0.085-0.032,0.168-0.094,0.246-0.186c0.125-0.143,0.187-0.321,0.187-0.53c0-0.297-0.104-0.533-0.313-0.709
			c-0.209-0.177-0.483-0.265-0.823-0.265c-0.185,0-0.34,0.021-0.466,0.065c-0.126,0.045-0.234,0.109-0.327,0.191
			c-0.123,0.118-0.212,0.248-0.271,0.387c-0.054,0.16-0.084,0.328-0.091,0.505h0.654c-0.003-0.175,0.034-0.315,0.111-0.421
			c0.079-0.105,0.199-0.157,0.365-0.157c0.144,0,0.255,0.043,0.334,0.128c0.08,0.086,0.118,0.195,0.118,0.332
			c0,0.21-0.077,0.35-0.232,0.418c-0.09,0.041-0.247,0.064-0.476,0.066v0.502c0.232,0,0.403,0.022,0.511,0.067
			c0.189,0.079,0.285,0.235,0.285,0.47c0,0.178-0.052,0.312-0.153,0.407c-0.104,0.094-0.224,0.142-0.359,0.142
			c-0.224,0-0.38-0.087-0.464-0.258c-0.046-0.095-0.069-0.211-0.069-0.354h-0.688c0.01,0.283,0.068,0.514,0.171,0.688
			c0.197,0.33,0.547,0.494,1.052,0.494c0.41,0,0.719-0.113,0.929-0.342c0.209-0.229,0.313-0.494,0.313-0.796
			c0-0.286-0.09-0.514-0.268-0.679C49.184,37.037,49.092,36.983,49.028,36.983z"/>
		<path d="M52.008,35.331h-0.789l-1.31,2.165v0.612h1.41v0.77h0.688v-0.77h0.402v-0.547h-0.402V35.331z M51.32,37.562h-0.89
			l0.89-1.536V37.562z"/>
		<path d="M54.074,36.536c-0.146,0-0.269,0.018-0.371,0.055c-0.06,0.023-0.145,0.07-0.252,0.142l0.128-0.779h1.456v-0.596h-1.963
			l-0.25,1.97l0.629,0.03c0.055-0.106,0.138-0.18,0.248-0.22c0.061-0.021,0.134-0.032,0.22-0.032c0.181,0,0.313,0.063,0.398,0.189
			c0.084,0.125,0.126,0.278,0.126,0.462c0,0.185-0.044,0.337-0.136,0.461c-0.091,0.122-0.223,0.184-0.396,0.184
			c-0.151,0-0.265-0.043-0.345-0.124c-0.077-0.083-0.131-0.2-0.158-0.354h-0.7c0.025,0.334,0.146,0.593,0.364,0.774
			c0.218,0.184,0.497,0.272,0.835,0.272c0.422,0,0.738-0.128,0.949-0.389c0.212-0.258,0.317-0.552,0.317-0.883
			c0-0.378-0.109-0.667-0.329-0.865C54.626,36.634,54.368,36.536,54.074,36.536z"/>
		<path d="M56.919,36.562c-0.148,0-0.28,0.024-0.395,0.071c-0.114,0.048-0.216,0.122-0.302,0.226
			c0.02-0.274,0.057-0.484,0.108-0.625c0.097-0.256,0.259-0.384,0.487-0.384c0.151,0,0.268,0.057,0.342,0.169
			c0.043,0.067,0.065,0.132,0.065,0.188h0.7c-0.025-0.282-0.137-0.509-0.333-0.677c-0.196-0.169-0.46-0.255-0.791-0.255
			c-0.229,0-0.428,0.053-0.592,0.158c-0.164,0.104-0.298,0.243-0.4,0.416c-0.118,0.201-0.197,0.453-0.237,0.757
			c-0.023,0.171-0.035,0.392-0.035,0.663c0,0.464,0.082,0.843,0.248,1.137c0.214,0.375,0.545,0.563,0.993,0.563
			c0.418,0,0.727-0.128,0.926-0.382c0.198-0.254,0.297-0.548,0.297-0.879c0-0.336-0.101-0.61-0.303-0.824
			C57.495,36.67,57.236,36.562,56.919,36.562z M57.156,38.224c-0.089,0.118-0.211,0.176-0.367,0.176c-0.159,0-0.29-0.06-0.395-0.182
			c-0.103-0.121-0.154-0.278-0.154-0.47c0-0.237,0.069-0.409,0.205-0.517c0.092-0.072,0.198-0.108,0.318-0.108
			c0.147,0,0.272,0.055,0.374,0.166c0.103,0.109,0.152,0.27,0.152,0.478C57.29,37.954,57.245,38.106,57.156,38.224z"/>
		<rect x="13.209" y="25.386" width="2.8" height="2.474"/>
		<rect x="6.203" y="25.386" width="2.8" height="2.474"/>
		<path d="M9.002,31.018v-2.115H6.374C6.752,30.047,7.766,30.888,9.002,31.018z"/>
		<rect x="10.043" y="28.903" width="2.124" height="2.148"/>
		<path d="M15.837,28.903h-2.628v2.115C14.446,30.888,15.458,30.047,15.837,28.903z"/>
		<path d="M12.167,24.345h0.521h0.521h2.709c-0.325-1.379-1.557-2.409-3.035-2.409h-2.839v5.925h2.124v-3.517H12.167z"/>
		<path d="M9.002,21.969c-1.33,0.139-2.408,1.101-2.709,2.376h2.709V21.969z"/>
		<path d="M50.337,28.438c3.198,0,5.801-2.602,5.801-5.8c0-3.198-2.603-5.8-5.801-5.8c-1.137,0-2.195,0.333-3.093,0.9
			c-0.83-0.456-1.779-0.716-2.791-0.716c-3.21,0-5.821,2.611-5.821,5.821c0,3.21,2.611,5.82,5.821,5.82
			c1.153,0,2.226-0.342,3.133-0.922C48.405,28.184,49.341,28.438,50.337,28.438z M50.337,17.878c2.625,0,4.759,2.134,4.759,4.758
			s-2.134,4.758-4.759,4.758c-0.653,0-1.275-0.133-1.843-0.373c0.109-0.106,0.213-0.219,0.315-0.334h-0.729h-0.205h-0.084
			c-0.078-0.062-0.147-0.131-0.222-0.197c-0.012-0.009-0.021-0.02-0.034-0.029c-0.232-0.209-0.453-0.431-0.646-0.681h1.302h0.669
			h0.607c0.132-0.225,0.254-0.457,0.355-0.701h-0.584h-0.591H46.44c-0.155-0.288-0.279-0.59-0.377-0.907h2.956h0.544h0.551
			c0.06-0.255,0.105-0.517,0.13-0.784h-0.547h-0.521h-3.288c-0.034-0.234-0.073-0.468-0.073-0.711c0-0.066,0.019-0.129,0.021-0.196
			h3.358h0.521h0.539c-0.017-0.259-0.044-0.515-0.093-0.764h-0.534h-0.544h-3.171c0.059-0.314,0.152-0.615,0.267-0.907h2.582h0.585
			H49.9c-0.102-0.271-0.218-0.533-0.355-0.783h-0.617h-0.632h-1.72C46.775,19.7,47,19.393,47.265,19.12h0.148h0.808h0.702
			c-0.218-0.26-0.456-0.498-0.714-0.717C48.852,18.079,49.569,17.878,50.337,17.878z"/>
		<polygon points="8.161,46.261 6.899,44.043 6.203,44.043 6.203,47.223 6.822,47.223 6.822,44.967 8.117,47.223 8.781,47.223 
			8.781,44.043 8.161,44.043 		"/>
		<path d="M11.279,46.897c-0.003-0.105-0.004-0.197-0.004-0.271v-1.079c0-0.283-0.1-0.477-0.301-0.578
			c-0.201-0.102-0.431-0.153-0.69-0.153c-0.396,0-0.678,0.103-0.841,0.31c-0.102,0.133-0.16,0.302-0.173,0.508h0.594
			c0.014-0.09,0.043-0.162,0.087-0.216c0.062-0.071,0.166-0.108,0.312-0.108c0.131,0,0.23,0.019,0.299,0.056
			c0.068,0.036,0.101,0.103,0.101,0.2c0,0.079-0.043,0.137-0.133,0.176c-0.049,0.021-0.131,0.038-0.246,0.053l-0.21,0.026
			c-0.24,0.03-0.42,0.08-0.543,0.151C9.307,46.1,9.196,46.31,9.196,46.599c0,0.224,0.07,0.395,0.209,0.517s0.316,0.184,0.531,0.184
			c0.167,0,0.318-0.039,0.451-0.116c0.111-0.064,0.209-0.143,0.294-0.235c0.004,0.054,0.011,0.101,0.017,0.144
			c0.008,0.041,0.021,0.085,0.039,0.132h0.669v-0.089c-0.041-0.02-0.071-0.043-0.09-0.071
			C11.296,47.033,11.283,46.978,11.279,46.897z M10.662,46.31c-0.004,0.205-0.062,0.346-0.176,0.425
			c-0.114,0.078-0.238,0.116-0.371,0.116c-0.084,0-0.157-0.022-0.215-0.069c-0.059-0.047-0.089-0.124-0.089-0.228
			c0-0.118,0.048-0.205,0.145-0.261c0.058-0.032,0.152-0.061,0.282-0.084l0.14-0.025c0.07-0.013,0.125-0.027,0.166-0.043
			c0.041-0.014,0.081-0.034,0.12-0.059v0.228H10.662z"/>
		<path d="M15.02,45.091c-0.083-0.1-0.173-0.171-0.273-0.212c-0.102-0.04-0.204-0.06-0.306-0.06c-0.156,0-0.297,0.032-0.423,0.097
			c-0.12,0.065-0.22,0.167-0.3,0.305c-0.045-0.114-0.113-0.209-0.202-0.282c-0.111-0.079-0.256-0.119-0.437-0.119
			c-0.19,0-0.345,0.046-0.464,0.14c-0.068,0.051-0.139,0.138-0.215,0.26v-0.344h-0.598v2.348h0.625v-1.415
			c0-0.128,0.016-0.225,0.049-0.287c0.061-0.114,0.178-0.171,0.354-0.171c0.151,0,0.252,0.056,0.304,0.171
			c0.029,0.062,0.043,0.163,0.043,0.303v1.399h0.619v-1.399c0-0.104,0.017-0.194,0.05-0.27c0.064-0.141,0.182-0.211,0.352-0.211
			c0.147,0,0.247,0.054,0.302,0.163c0.03,0.057,0.044,0.131,0.044,0.22v1.497h0.63l0.004-1.48c0-0.152-0.007-0.269-0.022-0.348
			C15.131,45.275,15.086,45.174,15.02,45.091z"/>
		<path d="M17.866,45.754c-0.028-0.185-0.09-0.347-0.187-0.486c-0.107-0.158-0.243-0.274-0.406-0.348s-0.348-0.11-0.553-0.11
			c-0.345,0-0.625,0.108-0.84,0.326c-0.216,0.216-0.324,0.529-0.324,0.936c0,0.436,0.12,0.749,0.358,0.942
			c0.24,0.192,0.516,0.289,0.829,0.289c0.379,0,0.674-0.114,0.884-0.342c0.136-0.145,0.211-0.286,0.228-0.426h-0.626
			c-0.037,0.069-0.079,0.122-0.127,0.163c-0.088,0.071-0.201,0.107-0.342,0.107c-0.132,0-0.245-0.028-0.339-0.088
			c-0.154-0.095-0.237-0.261-0.246-0.498h1.712C17.891,46.018,17.883,45.862,17.866,45.754z M16.189,45.814
			c0.023-0.154,0.077-0.273,0.164-0.364s0.209-0.136,0.367-0.136c0.145,0,0.267,0.043,0.364,0.129
			c0.098,0.083,0.153,0.207,0.164,0.371H16.189z"/>
		<polygon points="21.368,44.043 20.703,44.043 20.703,47.223 22.956,47.223 22.956,46.651 21.368,46.651 		"/>
		<path d="M25.277,46.897c-0.003-0.105-0.004-0.197-0.004-0.271v-1.079c0-0.283-0.1-0.477-0.301-0.578
			c-0.201-0.102-0.43-0.153-0.688-0.153c-0.397,0-0.678,0.103-0.841,0.31c-0.102,0.133-0.16,0.302-0.173,0.508h0.594
			c0.014-0.09,0.043-0.162,0.087-0.216c0.062-0.071,0.165-0.108,0.312-0.108c0.131,0,0.23,0.019,0.299,0.056
			c0.067,0.036,0.101,0.103,0.101,0.2c0,0.079-0.043,0.137-0.132,0.176c-0.049,0.021-0.131,0.038-0.246,0.053l-0.21,0.026
			c-0.24,0.03-0.421,0.08-0.544,0.151c-0.225,0.129-0.336,0.339-0.336,0.628c0,0.224,0.069,0.395,0.209,0.517
			c0.139,0.122,0.316,0.184,0.531,0.184c0.168,0,0.318-0.039,0.451-0.116c0.112-0.064,0.21-0.143,0.295-0.235
			c0.004,0.054,0.01,0.101,0.017,0.144c0.008,0.041,0.02,0.085,0.039,0.132h0.669v-0.089c-0.041-0.02-0.071-0.043-0.091-0.071
			C25.294,47.033,25.281,46.978,25.277,46.897z M24.659,46.31c-0.004,0.205-0.062,0.346-0.176,0.425
			c-0.113,0.078-0.237,0.116-0.371,0.116c-0.084,0-0.157-0.022-0.216-0.069c-0.059-0.047-0.088-0.124-0.088-0.228
			c0-0.118,0.048-0.205,0.145-0.261c0.058-0.032,0.152-0.061,0.282-0.084l0.139-0.025c0.07-0.013,0.125-0.027,0.166-0.043
			c0.041-0.014,0.081-0.034,0.12-0.059v0.228H24.659z"/>
		<path d="M27.082,45.808c-0.368-0.08-0.581-0.137-0.641-0.171c-0.061-0.031-0.091-0.082-0.091-0.153
			c0-0.056,0.03-0.104,0.085-0.146c0.058-0.042,0.152-0.062,0.287-0.062c0.162,0,0.277,0.041,0.345,0.125
			c0.037,0.045,0.059,0.107,0.068,0.187h0.614c-0.027-0.286-0.133-0.49-0.319-0.606c-0.185-0.117-0.425-0.177-0.719-0.177
			c-0.31,0-0.55,0.077-0.721,0.234c-0.171,0.156-0.256,0.343-0.256,0.56c0,0.185,0.055,0.325,0.165,0.423
			c0.109,0.099,0.298,0.183,0.565,0.248c0.371,0.088,0.585,0.149,0.643,0.186s0.086,0.089,0.086,0.156
			c0,0.072-0.035,0.126-0.107,0.162c-0.072,0.035-0.167,0.054-0.29,0.054c-0.206,0-0.349-0.041-0.425-0.122
			c-0.043-0.047-0.072-0.124-0.084-0.233h-0.624c0,0.242,0.088,0.441,0.265,0.597c0.176,0.155,0.45,0.233,0.821,0.233
			c0.364,0,0.631-0.073,0.805-0.22c0.174-0.147,0.26-0.338,0.26-0.572c0-0.177-0.061-0.323-0.181-0.442
			C27.51,45.953,27.327,45.866,27.082,45.808z"/>
		<path d="M28.962,44.237h-0.608v0.656h-0.328v0.438h0.328v1.448c0,0.146,0.034,0.255,0.103,0.326
			c0.106,0.109,0.304,0.16,0.595,0.15l0.291-0.011v-0.46c-0.021,0.003-0.041,0.003-0.062,0.005c-0.02,0-0.04,0-0.059,0
			c-0.125,0-0.2-0.013-0.225-0.035c-0.025-0.024-0.036-0.084-0.036-0.181v-1.242h0.382v-0.438h-0.382V44.237z"/>
		<path d="M32.269,44.816c-0.194,0-0.353,0.047-0.479,0.143c-0.07,0.053-0.145,0.14-0.224,0.26v-0.342H30.97v2.348h0.615v-1.273
			c0-0.145,0.02-0.264,0.059-0.357c0.077-0.178,0.219-0.266,0.426-0.266c0.169,0,0.282,0.06,0.343,0.181
			c0.033,0.066,0.049,0.162,0.049,0.284v1.43h0.63v-1.582c0-0.295-0.077-0.507-0.231-0.633
			C32.708,44.879,32.51,44.816,32.269,44.816z"/>
		<path d="M35.589,46.897c-0.003-0.105-0.004-0.197-0.004-0.271v-1.079c0-0.283-0.1-0.477-0.301-0.578
			c-0.202-0.102-0.431-0.153-0.689-0.153c-0.396,0-0.678,0.103-0.84,0.31c-0.103,0.133-0.161,0.302-0.173,0.508h0.593
			c0.016-0.09,0.045-0.162,0.088-0.216c0.062-0.071,0.167-0.108,0.313-0.108c0.13,0,0.229,0.019,0.299,0.056
			c0.067,0.036,0.101,0.103,0.101,0.2c0,0.079-0.044,0.137-0.132,0.176c-0.051,0.021-0.132,0.038-0.247,0.053l-0.21,0.026
			c-0.239,0.03-0.421,0.08-0.543,0.151c-0.227,0.129-0.337,0.339-0.337,0.628c0,0.224,0.07,0.395,0.209,0.517
			c0.14,0.122,0.316,0.184,0.53,0.184c0.168,0,0.317-0.039,0.452-0.116c0.11-0.064,0.209-0.143,0.295-0.235
			c0.004,0.054,0.01,0.101,0.016,0.144c0.008,0.041,0.02,0.085,0.039,0.132h0.668v-0.089c-0.04-0.02-0.07-0.043-0.09-0.071
			C35.606,47.033,35.593,46.978,35.589,46.897z M34.973,46.31c-0.004,0.205-0.063,0.346-0.176,0.425
			c-0.114,0.078-0.237,0.116-0.372,0.116c-0.083,0-0.156-0.022-0.215-0.069c-0.06-0.047-0.088-0.124-0.088-0.228
			c0-0.118,0.049-0.205,0.145-0.261c0.057-0.032,0.151-0.061,0.281-0.084l0.14-0.025c0.07-0.013,0.125-0.027,0.166-0.043
			c0.041-0.014,0.08-0.034,0.119-0.059V46.31z"/>
		<path d="M39.331,45.091c-0.081-0.1-0.173-0.171-0.273-0.212c-0.101-0.04-0.202-0.06-0.306-0.06c-0.155,0-0.298,0.032-0.424,0.097
			c-0.12,0.065-0.22,0.167-0.299,0.305c-0.047-0.114-0.114-0.209-0.203-0.282c-0.111-0.079-0.257-0.119-0.436-0.119
			c-0.19,0-0.346,0.046-0.464,0.14c-0.067,0.051-0.141,0.138-0.216,0.26v-0.344h-0.599v2.348h0.625v-1.415
			c0-0.128,0.017-0.225,0.049-0.287c0.061-0.114,0.177-0.171,0.354-0.171c0.15,0,0.252,0.056,0.304,0.171
			c0.027,0.062,0.043,0.163,0.043,0.303v1.399h0.618v-1.399c0-0.104,0.018-0.194,0.05-0.27c0.065-0.141,0.184-0.211,0.353-0.211
			c0.146,0,0.247,0.054,0.303,0.163c0.028,0.057,0.043,0.131,0.043,0.22v1.497h0.631l0.004-1.48c0-0.152-0.009-0.269-0.022-0.348
			C39.442,45.275,39.397,45.174,39.331,45.091z"/>
		<path d="M42.178,45.754c-0.028-0.185-0.091-0.347-0.188-0.486c-0.106-0.158-0.242-0.274-0.405-0.348
			c-0.164-0.073-0.349-0.11-0.553-0.11c-0.346,0-0.626,0.108-0.841,0.326c-0.216,0.216-0.325,0.529-0.325,0.936
			c0,0.436,0.12,0.749,0.359,0.942c0.239,0.192,0.516,0.289,0.828,0.289c0.379,0,0.674-0.114,0.884-0.342
			c0.137-0.145,0.212-0.286,0.228-0.426h-0.626c-0.037,0.069-0.079,0.122-0.127,0.163c-0.088,0.071-0.201,0.107-0.341,0.107
			c-0.133,0-0.246-0.028-0.34-0.088c-0.155-0.095-0.237-0.261-0.246-0.498h1.713C42.202,46.018,42.196,45.862,42.178,45.754z
			 M40.5,45.814c0.023-0.154,0.077-0.273,0.164-0.364c0.086-0.091,0.21-0.136,0.366-0.136c0.146,0,0.267,0.043,0.365,0.129
			c0.098,0.083,0.153,0.207,0.164,0.371H40.5z"/>
	</g>
</g>
<g>
</g>
<g>
</g>
<g>
</g>
<g>
</g>
<g>
</g>
<g>
</g>
<g>
</g>
<g>
</g>
<g>
</g>
<g>
</g>
<g>
</g>
<g>
</g>
<g>
</g>
<g>
</g>
<g>
</g>
</svg>
